<svg xmlns="http://www.w3.org/2000/svg" xmlns:xlink="http://www.w3.org/1999/xlink" width="309.631" height="58" viewBox="0 0 309.631 58"><defs><linearGradient id="a" x1="-0.08" x2="1.077" gradientUnits="objectBoundingBox"><stop offset="0" stop-color="#fff7f1"/><stop offset="1" stop-color="#a5a58d"/></linearGradient><linearGradient id="b" x1="-0.08" x2="1.077" gradientUnits="objectBoundingBox"><stop offset="0" stop-color="#ba9785"/><stop offset="1" stop-color="#c08f77"/></linearGradient></defs><g transform="translate(-922.047 -211)"><g transform="translate(922.047 211)"><path d="M4.047-36.494h2.7v7.455h.142a9.75,9.75,0,0,1,1.491-3.23,11.52,11.52,0,0,1,2.591-2.662,12.281,12.281,0,0,1,3.408-1.775,12.169,12.169,0,0,1,3.94-.639,13.716,13.716,0,0,1,4.544.674A10.766,10.766,0,0,1,26.128-34.9a8.766,8.766,0,0,1,2.13,2.485,9.483,9.483,0,0,1,1.065,2.8h.142a13.27,13.27,0,0,1,4.367-5.786,12.137,12.137,0,0,1,7.207-1.953,13.568,13.568,0,0,1,4.579.745,9.6,9.6,0,0,1,3.621,2.272,10.4,10.4,0,0,1,2.379,3.869,16.213,16.213,0,0,1,.852,5.538V0h-2.7V-24.992a11.68,11.68,0,0,0-1.065-5.467,8.538,8.538,0,0,0-2.52-3.018,7.139,7.139,0,0,0-2.911-1.278A14.347,14.347,0,0,0,41.038-35a12.041,12.041,0,0,0-4.58.852,9.724,9.724,0,0,0-3.621,2.556,12,12,0,0,0-2.379,4.224,18.047,18.047,0,0,0-.852,5.787V0h-2.7V-24.992a12.066,12.066,0,0,0-1.03-5.431,8.183,8.183,0,0,0-2.414-3.017,7.243,7.243,0,0,0-2.84-1.278A12.77,12.77,0,0,0,18.318-35a11.187,11.187,0,0,0-3.976.781,11.107,11.107,0,0,0-3.763,2.414A12.209,12.209,0,0,0,7.81-27.619a15.627,15.627,0,0,0-1.065,6.035V0h-2.7Zm115.659,0h2.7v7.81h.142a11.712,11.712,0,0,1,2.023-3.656,13.449,13.449,0,0,1,3.053-2.733,13.433,13.433,0,0,1,3.8-1.7,15.682,15.682,0,0,1,4.189-.568,16.573,16.573,0,0,1,5.432.781,10.633,10.633,0,0,1,3.656,2.059,9.947,9.947,0,0,1,2.237,2.876,13.291,13.291,0,0,1,1.171,3.23,19.043,19.043,0,0,1,.426,3.159q.071,1.527.071,2.663V0h-2.7V-23.075q0-1.349-.213-3.408a10.361,10.361,0,0,0-1.242-3.941,9.019,9.019,0,0,0-3.124-3.23A10.627,10.627,0,0,0,135.539-35,12.864,12.864,0,0,0,130-33.867a12,12,0,0,0-4.118,3.16,13.914,13.914,0,0,0-2.591,4.828,20.268,20.268,0,0,0-.887,6.142V0h-2.7Zm38.127,24.353a11.2,11.2,0,0,0,1.136,4.509A10.921,10.921,0,0,0,161.561-4.3,10.871,10.871,0,0,0,165.288-2.2a14.51,14.51,0,0,0,4.615.71,24.423,24.423,0,0,0,3.8-.319,13.171,13.171,0,0,0,3.763-1.171A7.812,7.812,0,0,0,180.34-5.36a6.306,6.306,0,0,0,1.136-3.869,5.707,5.707,0,0,0-1.846-4.615,12.911,12.911,0,0,0-4.65-2.414,47.152,47.152,0,0,0-6.035-1.384,31.3,31.3,0,0,1-6.035-1.6,12.284,12.284,0,0,1-4.651-3.017,8.02,8.02,0,0,1-1.846-5.715,7.954,7.954,0,0,1,1.207-4.509,8.983,8.983,0,0,1,3.089-2.875,14.008,14.008,0,0,1,4.225-1.527,24.194,24.194,0,0,1,4.686-.461,21.322,21.322,0,0,1,5.325.639,11.509,11.509,0,0,1,4.3,2.059,9.792,9.792,0,0,1,2.84,3.621,12.5,12.5,0,0,1,1.029,5.325h-2.7a10.134,10.134,0,0,0-.816-4.26,7.415,7.415,0,0,0-2.272-2.876,9.879,9.879,0,0,0-3.443-1.633,16.411,16.411,0,0,0-4.26-.532,20.069,20.069,0,0,0-3.727.355,10.767,10.767,0,0,0-3.372,1.207,7.563,7.563,0,0,0-2.45,2.2,5.492,5.492,0,0,0-.958,3.266,5.564,5.564,0,0,0,1.065,3.55,7.627,7.627,0,0,0,2.8,2.166,19.378,19.378,0,0,0,3.9,1.313q2.165.5,4.367.994,2.7.5,5.076,1.171a14.308,14.308,0,0,1,4.118,1.846,8.37,8.37,0,0,1,2.733,3.018,9.821,9.821,0,0,1,.994,4.686,8.318,8.318,0,0,1-1.349,4.9,10.405,10.405,0,0,1-3.408,3.088A14.445,14.445,0,0,1,174.837.391,27.367,27.367,0,0,1,169.9.852a19.652,19.652,0,0,1-5.786-.816,13.129,13.129,0,0,1-4.651-2.485,11.837,11.837,0,0,1-3.124-4.083,13.775,13.775,0,0,1-1.207-5.609Zm46.292-22.01h-7.952V-8.662a9.856,9.856,0,0,0,.5,3.479A3.977,3.977,0,0,0,198.2-3.23a5.424,5.424,0,0,0,2.485.816,25.462,25.462,0,0,0,3.373.071V0a25.148,25.148,0,0,1-4.012-.036A8.068,8.068,0,0,1,196.6-1.1a6.243,6.243,0,0,1-2.379-2.663,10.073,10.073,0,0,1-.745-4.9V-34.151H186.73v-2.343h6.745v-11.36h2.7v11.36h7.952Zm2.272,15.9a24,24,0,0,1,1.1-7.349,18.451,18.451,0,0,1,3.23-6.07,15.341,15.341,0,0,1,5.254-4.153,16.134,16.134,0,0,1,7.171-1.527,16.134,16.134,0,0,1,7.171,1.527,15.341,15.341,0,0,1,5.254,4.153,18.45,18.45,0,0,1,3.23,6.07,24,24,0,0,1,1.1,7.349,24.343,24.343,0,0,1-1.1,7.384,17.991,17.991,0,0,1-3.23,6.07,15.532,15.532,0,0,1-5.254,4.118A16.134,16.134,0,0,1,223.153.852a16.134,16.134,0,0,1-7.171-1.526,15.532,15.532,0,0,1-5.254-4.118,17.992,17.992,0,0,1-3.23-6.07A24.343,24.343,0,0,1,206.4-18.247Zm2.7,0a21.361,21.361,0,0,0,.923,6.283,17.047,17.047,0,0,0,2.7,5.36,13.136,13.136,0,0,0,4.4,3.728,12.752,12.752,0,0,0,6.035,1.385,12.752,12.752,0,0,0,6.035-1.385,13.136,13.136,0,0,0,4.4-3.728,17.047,17.047,0,0,0,2.7-5.36,21.361,21.361,0,0,0,.923-6.283,21.361,21.361,0,0,0-.923-6.283,17.047,17.047,0,0,0-2.7-5.361,13.136,13.136,0,0,0-4.4-3.727A12.752,12.752,0,0,0,223.153-35a12.752,12.752,0,0,0-6.035,1.384,13.136,13.136,0,0,0-4.4,3.727,17.047,17.047,0,0,0-2.7,5.361A21.361,21.361,0,0,0,209.1-18.247Zm37.133-18.247h2.7v7.81h.142a11.712,11.712,0,0,1,2.023-3.656,13.449,13.449,0,0,1,3.053-2.733,13.433,13.433,0,0,1,3.8-1.7,15.682,15.682,0,0,1,4.189-.568,16.573,16.573,0,0,1,5.432.781,10.633,10.633,0,0,1,3.656,2.059,9.947,9.947,0,0,1,2.237,2.876,13.29,13.29,0,0,1,1.171,3.23,19.042,19.042,0,0,1,.426,3.159q.071,1.527.071,2.663V0h-2.7V-23.075q0-1.349-.213-3.408a10.361,10.361,0,0,0-1.242-3.941,9.019,9.019,0,0,0-3.124-3.23A10.627,10.627,0,0,0,262.061-35a12.864,12.864,0,0,0-5.538,1.136,12,12,0,0,0-4.118,3.16,13.915,13.915,0,0,0-2.592,4.828,20.269,20.269,0,0,0-.887,6.142V0h-2.7Zm37.914,18.6v.426a21.628,21.628,0,0,0,.852,6.106,15.646,15.646,0,0,0,2.521,5.112A11.975,11.975,0,0,0,291.7-2.769a12.787,12.787,0,0,0,5.857,1.278q5.467,0,8.662-2.875a15.055,15.055,0,0,0,4.4-7.988h2.7q-1.207,6.39-5.218,9.8T297.49.852A16.093,16.093,0,0,1,290.426-.6a14.377,14.377,0,0,1-5.041-3.976,16.884,16.884,0,0,1-3.018-5.964,26.649,26.649,0,0,1-.994-7.419,26.007,26.007,0,0,1,1.03-7.349,18.471,18.471,0,0,1,3.089-6.177,15.3,15.3,0,0,1,5.147-4.26,15.641,15.641,0,0,1,7.277-1.6,15.437,15.437,0,0,1,6.78,1.42,14.2,14.2,0,0,1,4.935,3.869,17.2,17.2,0,0,1,3.017,5.68,22.672,22.672,0,0,1,1.03,6.923q0,.355-.035.816t-.035.745Zm26.767-2.343a21.851,21.851,0,0,0-.994-5.644,13.978,13.978,0,0,0-2.521-4.686,12.537,12.537,0,0,0-4.047-3.231A11.837,11.837,0,0,0,297.916-35a12.7,12.7,0,0,0-5.751,1.243,13.005,13.005,0,0,0-4.189,3.266,14.567,14.567,0,0,0-2.627,4.722,22.161,22.161,0,0,0-1.136,5.538Z" transform="translate(-4.047 57)" fill="url(#a)"/><path d="M4.047-36.494h2.7v7.455h.142a9.75,9.75,0,0,1,1.491-3.23,11.52,11.52,0,0,1,2.591-2.662,12.281,12.281,0,0,1,3.408-1.775,12.169,12.169,0,0,1,3.94-.639,13.716,13.716,0,0,1,4.544.674A10.766,10.766,0,0,1,26.128-34.9a8.766,8.766,0,0,1,2.13,2.485,9.483,9.483,0,0,1,1.065,2.8h.142a13.27,13.27,0,0,1,4.367-5.786,12.137,12.137,0,0,1,7.207-1.953,13.568,13.568,0,0,1,4.579.745,9.6,9.6,0,0,1,3.621,2.272,10.4,10.4,0,0,1,2.379,3.869,16.213,16.213,0,0,1,.852,5.538V0h-2.7V-24.992a11.68,11.68,0,0,0-1.065-5.467,8.538,8.538,0,0,0-2.52-3.018,7.139,7.139,0,0,0-2.911-1.278A14.347,14.347,0,0,0,41.038-35a12.041,12.041,0,0,0-4.58.852,9.724,9.724,0,0,0-3.621,2.556,12,12,0,0,0-2.379,4.224,18.047,18.047,0,0,0-.852,5.787V0h-2.7V-24.992a12.066,12.066,0,0,0-1.03-5.431,8.183,8.183,0,0,0-2.414-3.017,7.243,7.243,0,0,0-2.84-1.278A12.77,12.77,0,0,0,18.318-35a11.187,11.187,0,0,0-3.976.781,11.107,11.107,0,0,0-3.763,2.414A12.209,12.209,0,0,0,7.81-27.619a15.627,15.627,0,0,0-1.065,6.035V0h-2.7Zm115.659,0h2.7v7.81h.142a11.712,11.712,0,0,1,2.023-3.656,13.449,13.449,0,0,1,3.053-2.733,13.433,13.433,0,0,1,3.8-1.7,15.682,15.682,0,0,1,4.189-.568,16.573,16.573,0,0,1,5.432.781,10.633,10.633,0,0,1,3.656,2.059,9.947,9.947,0,0,1,2.237,2.876,13.291,13.291,0,0,1,1.171,3.23,19.043,19.043,0,0,1,.426,3.159q.071,1.527.071,2.663V0h-2.7V-23.075q0-1.349-.213-3.408a10.361,10.361,0,0,0-1.242-3.941,9.019,9.019,0,0,0-3.124-3.23A10.627,10.627,0,0,0,135.539-35,12.864,12.864,0,0,0,130-33.867a12,12,0,0,0-4.118,3.16,13.914,13.914,0,0,0-2.591,4.828,20.268,20.268,0,0,0-.887,6.142V0h-2.7Zm38.127,24.353a11.2,11.2,0,0,0,1.136,4.509A10.921,10.921,0,0,0,161.561-4.3,10.871,10.871,0,0,0,165.288-2.2a14.51,14.51,0,0,0,4.615.71,24.423,24.423,0,0,0,3.8-.319,13.171,13.171,0,0,0,3.763-1.171A7.812,7.812,0,0,0,180.34-5.36a6.306,6.306,0,0,0,1.136-3.869,5.707,5.707,0,0,0-1.846-4.615,12.911,12.911,0,0,0-4.65-2.414,47.152,47.152,0,0,0-6.035-1.384,31.3,31.3,0,0,1-6.035-1.6,12.284,12.284,0,0,1-4.651-3.017,8.02,8.02,0,0,1-1.846-5.715,7.954,7.954,0,0,1,1.207-4.509,8.983,8.983,0,0,1,3.089-2.875,14.008,14.008,0,0,1,4.225-1.527,24.194,24.194,0,0,1,4.686-.461,21.322,21.322,0,0,1,5.325.639,11.509,11.509,0,0,1,4.3,2.059,9.792,9.792,0,0,1,2.84,3.621,12.5,12.5,0,0,1,1.029,5.325h-2.7a10.134,10.134,0,0,0-.816-4.26,7.415,7.415,0,0,0-2.272-2.876,9.879,9.879,0,0,0-3.443-1.633,16.411,16.411,0,0,0-4.26-.532,20.069,20.069,0,0,0-3.727.355,10.767,10.767,0,0,0-3.372,1.207,7.563,7.563,0,0,0-2.45,2.2,5.492,5.492,0,0,0-.958,3.266,5.564,5.564,0,0,0,1.065,3.55,7.627,7.627,0,0,0,2.8,2.166,19.378,19.378,0,0,0,3.9,1.313q2.165.5,4.367.994,2.7.5,5.076,1.171a14.308,14.308,0,0,1,4.118,1.846,8.37,8.37,0,0,1,2.733,3.018,9.821,9.821,0,0,1,.994,4.686,8.318,8.318,0,0,1-1.349,4.9,10.405,10.405,0,0,1-3.408,3.088A14.445,14.445,0,0,1,174.837.391,27.367,27.367,0,0,1,169.9.852a19.652,19.652,0,0,1-5.786-.816,13.129,13.129,0,0,1-4.651-2.485,11.837,11.837,0,0,1-3.124-4.083,13.775,13.775,0,0,1-1.207-5.609Zm46.292-22.01h-7.952V-8.662a9.856,9.856,0,0,0,.5,3.479A3.977,3.977,0,0,0,198.2-3.23a5.424,5.424,0,0,0,2.485.816,25.462,25.462,0,0,0,3.373.071V0a25.148,25.148,0,0,1-4.012-.036A8.068,8.068,0,0,1,196.6-1.1a6.243,6.243,0,0,1-2.379-2.663,10.073,10.073,0,0,1-.745-4.9V-34.151H186.73v-2.343h6.745v-11.36h2.7v11.36h7.952Zm2.272,15.9a24,24,0,0,1,1.1-7.349,18.451,18.451,0,0,1,3.23-6.07,15.341,15.341,0,0,1,5.254-4.153,16.134,16.134,0,0,1,7.171-1.527,16.134,16.134,0,0,1,7.171,1.527,15.341,15.341,0,0,1,5.254,4.153,18.45,18.45,0,0,1,3.23,6.07,24,24,0,0,1,1.1,7.349,24.343,24.343,0,0,1-1.1,7.384,17.991,17.991,0,0,1-3.23,6.07,15.532,15.532,0,0,1-5.254,4.118A16.134,16.134,0,0,1,223.153.852a16.134,16.134,0,0,1-7.171-1.526,15.532,15.532,0,0,1-5.254-4.118,17.992,17.992,0,0,1-3.23-6.07A24.343,24.343,0,0,1,206.4-18.247Zm2.7,0a21.361,21.361,0,0,0,.923,6.283,17.047,17.047,0,0,0,2.7,5.36,13.136,13.136,0,0,0,4.4,3.728,12.752,12.752,0,0,0,6.035,1.385,12.752,12.752,0,0,0,6.035-1.385,13.136,13.136,0,0,0,4.4-3.728,17.047,17.047,0,0,0,2.7-5.36,21.361,21.361,0,0,0,.923-6.283,21.361,21.361,0,0,0-.923-6.283,17.047,17.047,0,0,0-2.7-5.361,13.136,13.136,0,0,0-4.4-3.727A12.752,12.752,0,0,0,223.153-35a12.752,12.752,0,0,0-6.035,1.384,13.136,13.136,0,0,0-4.4,3.727,17.047,17.047,0,0,0-2.7,5.361A21.361,21.361,0,0,0,209.1-18.247Zm37.133-18.247h2.7v7.81h.142a11.712,11.712,0,0,1,2.023-3.656,13.449,13.449,0,0,1,3.053-2.733,13.433,13.433,0,0,1,3.8-1.7,15.682,15.682,0,0,1,4.189-.568,16.573,16.573,0,0,1,5.432.781,10.633,10.633,0,0,1,3.656,2.059,9.947,9.947,0,0,1,2.237,2.876,13.29,13.29,0,0,1,1.171,3.23,19.042,19.042,0,0,1,.426,3.159q.071,1.527.071,2.663V0h-2.7V-23.075q0-1.349-.213-3.408a10.361,10.361,0,0,0-1.242-3.941,9.019,9.019,0,0,0-3.124-3.23A10.627,10.627,0,0,0,262.061-35a12.864,12.864,0,0,0-5.538,1.136,12,12,0,0,0-4.118,3.16,13.915,13.915,0,0,0-2.592,4.828,20.269,20.269,0,0,0-.887,6.142V0h-2.7Zm37.914,18.6v.426a21.628,21.628,0,0,0,.852,6.106,15.646,15.646,0,0,0,2.521,5.112A11.975,11.975,0,0,0,291.7-2.769a12.787,12.787,0,0,0,5.857,1.278q5.467,0,8.662-2.875a15.055,15.055,0,0,0,4.4-7.988h2.7q-1.207,6.39-5.218,9.8T297.49.852A16.093,16.093,0,0,1,290.426-.6a14.377,14.377,0,0,1-5.041-3.976,16.884,16.884,0,0,1-3.018-5.964,26.649,26.649,0,0,1-.994-7.419,26.007,26.007,0,0,1,1.03-7.349,18.471,18.471,0,0,1,3.089-6.177,15.3,15.3,0,0,1,5.147-4.26,15.641,15.641,0,0,1,7.277-1.6,15.437,15.437,0,0,1,6.78,1.42,14.2,14.2,0,0,1,4.935,3.869,17.2,17.2,0,0,1,3.017,5.68,22.672,22.672,0,0,1,1.03,6.923q0,.355-.035.816t-.035.745Zm26.767-2.343a21.851,21.851,0,0,0-.994-5.644,13.978,13.978,0,0,0-2.521-4.686,12.537,12.537,0,0,0-4.047-3.231A11.837,11.837,0,0,0,297.916-35a12.7,12.7,0,0,0-5.751,1.243,13.005,13.005,0,0,0-4.189,3.266,14.567,14.567,0,0,0-2.627,4.722,22.161,22.161,0,0,0-1.136,5.538Z" transform="translate(-4.047 57)" fill="url(#b)"/><g transform="translate(1002 -1936.335)" fill="#ebe7db"><path d="M -924.3792114257812 1993.335205078125 C -926.8995971679688 1993.335205078125 -929.34423828125 1992.841796875 -931.6452026367188 1991.86865234375 C -933.8677368164062 1990.9287109375 -935.8642578125 1989.58251953125 -937.5792846679688 1987.867553710938 C -939.2940673828125 1986.152709960938 -940.6401977539062 1984.15625 -941.580322265625 1981.93359375 C -942.553466796875 1979.632690429688 -943.0469360351562 1977.188110351562 -943.0469360351562 1974.667602539062 C -943.0469360351562 1972.147094726562 -942.5535278320312 1969.702392578125 -941.580322265625 1967.401611328125 C -940.64013671875 1965.1787109375 -939.2939453125 1963.18212890625 -937.5792846679688 1961.467529296875 C -935.8646850585938 1959.7529296875 -933.8681640625 1958.40673828125 -931.6451416015625 1957.466430664062 C -929.34423828125 1956.493286132812 -926.8995971679688 1955.999877929688 -924.3792114257812 1955.999877929688 C -923.0972290039062 1955.999877929688 -921.8308715820312 1956.128540039062 -920.5923461914062 1956.383666992188 C -921.601806640625 1956.917236328125 -922.5675659179688 1957.53515625 -923.4812622070312 1958.23291015625 C -925.1323852539062 1959.494140625 -926.5808715820312 1960.990966796875 -927.78662109375 1962.682006835938 C -930.2913818359375 1966.19482421875 -931.6152954101562 1970.33935546875 -931.6152954101562 1974.667602539062 C -931.6152954101562 1978.995849609375 -930.2913818359375 1983.140258789062 -927.78662109375 1986.653076171875 C -926.5807495117188 1988.34423828125 -925.1322021484375 1989.841064453125 -923.4813232421875 1991.10205078125 C -922.567626953125 1991.7998046875 -921.601806640625 1992.417846679688 -920.59228515625 1992.951416015625 C -921.830810546875 1993.20654296875 -923.09716796875 1993.335205078125 -924.3792114257812 1993.335205078125 Z" stroke="none"/><path d="M -924.3792114257812 1992.335205078125 C -924.0925903320312 1992.335205078125 -923.806884765625 1992.328369140625 -923.5221557617188 1992.314819335938 C -923.712890625 1992.1787109375 -923.9016723632812 1992.039306640625 -924.0883178710938 1991.896728515625 C -925.8186645507812 1990.575073242188 -927.3369140625 1989.006225585938 -928.600830078125 1987.233642578125 C -931.2271118164062 1983.550415039062 -932.6152954101562 1979.205200195312 -932.6152954101562 1974.667602539062 C -932.6152954101562 1970.130004882812 -931.2271118164062 1965.78466796875 -928.600830078125 1962.101440429688 C -927.3370971679688 1960.328979492188 -925.81884765625 1958.760131835938 -924.0881958007812 1957.438232421875 C -923.9015502929688 1957.295654296875 -923.712890625 1957.156372070312 -923.5221557617188 1957.020263671875 C -923.806884765625 1957.006713867188 -924.0926513671875 1956.999877929688 -924.3792114257812 1956.999877929688 C -926.7650756835938 1956.999877929688 -929.0786743164062 1957.466674804688 -931.2555541992188 1958.387451171875 C -933.359375 1959.27734375 -935.2490844726562 1960.551513671875 -936.8721923828125 1962.174560546875 C -938.495361328125 1963.797729492188 -939.76953125 1965.6875 -940.6593627929688 1967.791137695312 C -941.580078125 1969.968017578125 -942.0469360351562 1972.281616210938 -942.0469360351562 1974.667602539062 C -942.0469360351562 1977.053466796875 -941.580078125 1979.367065429688 -940.6593627929688 1981.544067382812 C -939.7696533203125 1983.6474609375 -938.4954223632812 1985.537109375 -936.8721923828125 1987.160400390625 C -935.2486572265625 1988.783813476562 -933.3590087890625 1990.05810546875 -931.2556762695312 1990.947631835938 C -929.0786743164062 1991.868408203125 -926.7650756835938 1992.335205078125 -924.3792114257812 1992.335205078125 M -924.3792114257812 1994.335205078125 C -927.0342407226562 1994.335205078125 -929.6099243164062 1993.815185546875 -932.0347290039062 1992.789672851562 C -934.3766479492188 1991.799194335938 -936.47998046875 1990.380981445312 -938.286376953125 1988.57470703125 C -940.0925903320312 1986.768432617188 -941.5107421875 1984.665161132812 -942.5013427734375 1982.323120117188 C -943.5269165039062 1979.898315429688 -944.0469360351562 1977.322509765625 -944.0469360351562 1974.667602539062 C -944.0469360351562 1972.012451171875 -943.5269165039062 1969.436767578125 -942.5013427734375 1967.012084960938 C -941.5107421875 1964.670043945312 -940.0926513671875 1962.566650390625 -938.286376953125 1960.760375976562 C -936.480224609375 1958.954223632812 -934.3768310546875 1957.5361328125 -932.0347290039062 1956.54541015625 C -929.6099243164062 1955.519897460938 -927.0342407226562 1954.999877929688 -924.3792114257812 1954.999877929688 C -922.0716552734375 1954.999877929688 -919.8121337890625 1955.395751953125 -917.6633911132812 1956.176391601562 C -919.5315551757812 1956.855102539062 -921.2847900390625 1957.813842773438 -922.8743286132812 1959.027709960938 C -924.44580078125 1960.22802734375 -925.8246459960938 1961.65283203125 -926.972412109375 1963.262573242188 C -929.3555908203125 1966.604858398438 -930.6152954101562 1970.548583984375 -930.6152954101562 1974.667602539062 C -930.6152954101562 1978.786499023438 -929.3555908203125 1982.730224609375 -926.972412109375 1986.072509765625 C -925.8245849609375 1987.682250976562 -924.44580078125 1989.107055664062 -922.8743286132812 1990.307373046875 C -921.2864379882812 1991.52001953125 -919.533203125 1992.479370117188 -917.6633911132812 1993.15869140625 C -919.81396484375 1993.940063476562 -922.073486328125 1994.335205078125 -924.3792114257812 1994.335205078125 Z" stroke="none" fill="#765848"/></g><path d="M-924.379,1994.335a19.546,19.546,0,0,1-7.656-1.546,19.6,19.6,0,0,1-6.252-4.215,19.6,19.6,0,0,1-4.215-6.252,19.545,19.545,0,0,1-1.546-7.656,19.544,19.544,0,0,1,1.546-7.656,19.6,19.6,0,0,1,4.215-6.252,19.6,19.6,0,0,1,6.252-4.215,19.546,19.546,0,0,1,7.656-1.546,19.546,19.546,0,0,1,7.655,1.546,19.6,19.6,0,0,1,6.252,4.215,19.6,19.6,0,0,1,4.215,6.252,19.544,19.544,0,0,1,1.546,7.656,19.545,19.545,0,0,1-1.546,7.656,19.6,19.6,0,0,1-4.215,6.252,19.6,19.6,0,0,1-6.252,4.215A19.546,19.546,0,0,1-924.379,1994.335Zm0-37.335a17.551,17.551,0,0,0-12.492,5.175,17.552,17.552,0,0,0-5.175,12.492,17.551,17.551,0,0,0,5.175,12.492,17.551,17.551,0,0,0,12.492,5.175,17.551,17.551,0,0,0,12.492-5.175,17.551,17.551,0,0,0,5.175-12.492,17.552,17.552,0,0,0-5.175-12.492A17.551,17.551,0,0,0-924.379,1957Z" transform="translate(1013.431 -1936.335)" fill="#765848"/><g transform="translate(-600.12 -170.073)"><path d="M.5,0,1,7H0Z" transform="translate(703.073 170.073)" fill="#d2d7ed"/><path d="M.174,0,.349,3.834H0Z" transform="translate(706.176 173.995) rotate(48)" fill="#d2d7ed"/><path d="M.5,0,1,7H0Z" transform="translate(710.073 176.073) rotate(90)" fill="#d2d7ed"/><path d="M.174,0,.349,3.834H0Z" transform="translate(706.151 179.176) rotate(138)" fill="#d2d7ed"/><path d="M.5,0,1,7H0Z" transform="translate(697.073 177.073) rotate(-90)" fill="#d2d7ed"/><path d="M.174,0,.349,3.834H0Z" transform="translate(700.995 173.97) rotate(-42)" fill="#d2d7ed"/><path d="M.5,0,1,7H0Z" transform="translate(704.073 183.073) rotate(180)" fill="#d2d7ed"/><path d="M.174,0,.349,3.834H0Z" transform="translate(700.97 179.152) rotate(-132)" fill="#d2d7ed"/></g><g transform="translate(-600.12 -170.073)"><path d="M.5,0,1,7H0Z" transform="translate(703.073 170.073)" fill="#f8f1ea"/><path d="M.174,0,.349,3.834H0Z" transform="translate(706.176 173.995) rotate(48)" fill="#f8f1ea"/><path d="M.5,0,1,7H0Z" transform="translate(710.073 176.073) rotate(90)" fill="#f8f1ea"/><path d="M.174,0,.349,3.834H0Z" transform="translate(706.151 179.176) rotate(138)" fill="#f8f1ea"/><path d="M.5,0,1,7H0Z" transform="translate(697.073 177.073) rotate(-90)" fill="#f8f1ea"/><path d="M.174,0,.349,3.834H0Z" transform="translate(700.995 173.97) rotate(-42)" fill="#f8f1ea"/><path d="M.5,0,1,7H0Z" transform="translate(704.073 183.073) rotate(180)" fill="#f8f1ea"/><path d="M.174,0,.349,3.834H0Z" transform="translate(700.97 179.152) rotate(-132)" fill="#f8f1ea"/></g><g transform="translate(-261.313 -605.83) rotate(45)"><path d="M.308,0,.616,4.314H0Z" transform="translate(700.771 170.073)" fill="#707071"/><path d="M.107,0,.215,2.363H0Z" transform="translate(702.683 172.49) rotate(48)" fill="#707071"/><path d="M.308,0,.616,4.314H0Z" transform="translate(705.084 173.771) rotate(90)" fill="#707071"/><path d="M.107,0,.215,2.363H0Z" transform="translate(702.668 175.683) rotate(138)" fill="#707071"/><path d="M.308,0,.616,4.314H0Z" transform="translate(697.073 174.387) rotate(-90)" fill="#707071"/><path d="M.107,0,.215,2.363H0Z" transform="translate(699.49 172.475) rotate(-42)" fill="#707071"/><path d="M.308,0,.616,4.314H0Z" transform="translate(701.387 178.084) rotate(180)" fill="#707071"/><path d="M.107,0,.215,2.363H0Z" transform="translate(699.475 175.668) rotate(-132)" fill="#707071"/></g><g transform="translate(-261.313 -605.83) rotate(45)"><path d="M.308,0,.616,4.314H0Z" transform="translate(700.771 170.073)" fill="#c7c4b3"/><path d="M.107,0,.215,2.363H0Z" transform="translate(702.683 172.49) rotate(48)" fill="#c7c4b3"/><path d="M.308,0,.616,4.314H0Z" transform="translate(705.084 173.771) rotate(90)" fill="#c7c4b3"/><path d="M.107,0,.215,2.363H0Z" transform="translate(702.668 175.683) rotate(138)" fill="#c7c4b3"/><path d="M.308,0,.616,4.314H0Z" transform="translate(697.073 174.387) rotate(-90)" fill="#c7c4b3"/><path d="M.107,0,.215,2.363H0Z" transform="translate(699.49 172.475) rotate(-42)" fill="#c7c4b3"/><path d="M.308,0,.616,4.314H0Z" transform="translate(701.387 178.084) rotate(180)" fill="#c7c4b3"/><path d="M.107,0,.215,2.363H0Z" transform="translate(699.475 175.668) rotate(-132)" fill="#c7c4b3"/></g></g></g></svg>