<?xml version="1.0" standalone="no"?>
<!DOCTYPE svg PUBLIC "-//W3C//DTD SVG 20010904//EN"
 "http://www.w3.org/TR/2001/REC-SVG-20010904/DTD/svg10.dtd">
<svg version="1.0" xmlns="http://www.w3.org/2000/svg"
 width="816.000000pt" height="816.000000pt" viewBox="0 0 816.000000 816.000000"
 preserveAspectRatio="xMidYMid meet">
<metadata>
Created by potrace 1.11, written by Peter Selinger 2001-2013
</metadata>
<g transform="translate(0.000000,816.000000) scale(0.100000,-0.100000)"
fill="#000000" stroke="none">
<path d="M2969 7236 c-2 -2 -44 -7 -94 -10 -91 -6 -139 -12 -185 -22 -14 -3
-45 -8 -70 -10 -34 -4 -262 -56 -335 -77 -5 -2 -37 -11 -70 -21 -33 -9 -69
-20 -80 -25 -11 -4 -69 -27 -130 -51 -217 -84 -514 -242 -660 -352 -83 -62
-250 -193 -268 -211 -105 -98 -230 -223 -272 -272 -27 -32 -57 -65 -66 -74
-31 -32 -151 -192 -204 -273 -30 -46 -59 -88 -65 -95 -5 -7 -10 -15 -10 -18 0
-3 -12 -24 -26 -46 -48 -76 -151 -283 -193 -389 -23 -58 -46 -114 -51 -125
-24 -55 -103 -329 -116 -405 -3 -14 -7 -32 -9 -40 -3 -8 -7 -32 -11 -54 -3
-21 -8 -48 -10 -60 -9 -39 -17 -99 -31 -231 -10 -91 -10 -498 0 -595 14 -135
24 -199 32 -221 3 -8 7 -32 9 -54 12 -121 93 -400 175 -607 69 -174 272 -556
302 -566 5 -2 9 -8 9 -13 0 -13 120 -175 196 -265 120 -143 305 -327 413 -412
187 -146 272 -205 431 -298 84 -50 333 -174 348 -174 5 0 26 -9 48 -19 21 -10
82 -33 134 -51 52 -17 102 -34 110 -37 8 -3 20 -7 25 -9 6 -1 52 -14 103 -27
50 -14 92 -23 92 -20 0 3 6 1 13 -5 7 -7 33 -14 58 -17 24 -3 69 -10 99 -15
30 -6 73 -13 95 -16 22 -3 51 -7 65 -9 148 -27 631 -27 795 0 17 3 44 7 60 10
17 3 49 8 73 11 49 7 57 8 92 17 14 4 36 9 50 11 14 2 73 17 133 32 l107 28
108 -28 c117 -31 111 -29 232 -52 128 -24 129 -24 179 -29 25 -3 75 -8 111
-12 85 -10 495 -10 585 0 125 13 181 21 235 32 14 2 36 7 50 10 14 2 41 7 60
10 111 18 492 133 514 156 6 5 16 9 24 9 36 0 483 226 512 259 3 3 43 31 90
62 80 52 247 182 315 243 113 103 249 243 325 336 25 30 47 57 50 60 15 14
110 140 110 146 0 3 14 23 30 44 17 21 30 42 30 48 0 6 4 12 8 14 25 10 200
337 267 498 90 215 160 457 199 680 34 199 40 285 41 540 0 242 -10 378 -38
525 -3 11 -7 36 -11 55 -3 19 -9 46 -12 60 -3 14 -7 34 -8 45 -9 55 -84 320
-105 370 -5 11 -26 63 -46 115 -71 180 -175 383 -284 550 -38 59 -159 228
-176 246 -5 6 -26 30 -45 54 -78 97 -229 253 -340 350 -35 30 -68 59 -74 65
-50 47 -373 275 -390 275 -3 0 -22 11 -42 25 -53 36 -303 157 -419 203 -114
45 -258 92 -373 122 -105 27 -142 35 -252 54 -14 3 -25 5 -25 6 0 1 -16 3 -35
5 -19 2 -53 6 -75 9 -120 17 -191 21 -405 21 -209 0 -341 -7 -412 -20 -13 -3
-41 -7 -63 -10 -22 -3 -51 -7 -65 -10 -14 -3 -50 -10 -80 -16 -108 -21 -138
-28 -235 -55 -73 -20 -63 -20 -155 6 -41 11 -82 22 -90 24 -33 9 -237 48 -260
51 -75 9 -138 17 -160 21 -31 6 -506 15 -511 10z m2316 -330 c22 -3 63 -8 90
-12 143 -16 412 -80 545 -128 25 -9 52 -18 61 -21 62 -14 422 -188 490 -236
15 -10 32 -19 38 -19 6 0 11 -4 11 -8 0 -5 19 -19 43 -32 23 -13 48 -30 55
-37 7 -7 26 -20 42 -30 17 -9 30 -21 30 -25 0 -4 6 -8 13 -8 7 0 19 -9 27 -20
8 -11 20 -20 26 -20 7 0 14 -3 16 -7 2 -5 25 -26 53 -48 117 -94 312 -300 455
-482 22 -27 150 -221 174 -263 33 -57 136 -262 158 -315 29 -69 80 -204 82
-220 1 -8 5 -18 9 -21 4 -4 7 -16 7 -26 0 -10 4 -26 9 -36 12 -22 45 -148 55
-212 1 -8 6 -28 9 -45 12 -51 17 -78 22 -125 3 -25 8 -52 10 -60 25 -87 25
-645 0 -740 -2 -8 -6 -35 -9 -60 -6 -49 -12 -78 -23 -125 -3 -16 -8 -39 -9
-50 -1 -11 -12 -56 -24 -100 -11 -44 -22 -87 -25 -95 -2 -8 -9 -28 -15 -45 -6
-16 -13 -37 -15 -45 -9 -37 -56 -163 -93 -245 -39 -89 -122 -255 -132 -265 -3
-3 -14 -21 -24 -40 -19 -35 -106 -171 -116 -180 -3 -3 -21 -27 -39 -55 -73
-105 -154 -198 -297 -340 -128 -127 -152 -149 -260 -230 -43 -33 -80 -63 -82
-67 -2 -5 -10 -8 -17 -8 -7 0 -15 -3 -17 -8 -5 -11 -115 -82 -127 -82 -6 0
-11 -3 -11 -7 0 -10 -39 -33 -185 -107 -152 -78 -329 -153 -400 -171 -5 -1
-17 -5 -25 -8 -18 -7 -125 -38 -149 -42 -9 -2 -16 -4 -16 -5 0 -2 -23 -8 -60
-15 -16 -3 -50 -10 -75 -15 -25 -6 -56 -12 -70 -14 -14 -3 -25 -5 -25 -6 0 -1
-20 -3 -44 -6 -25 -2 -56 -7 -70 -9 -97 -19 -482 -26 -616 -12 -87 9 -156 17
-185 22 -14 2 -43 7 -65 10 -72 11 -278 63 -373 95 -194 63 -411 160 -557 250
-37 22 -70 40 -74 40 -5 0 -16 9 -26 20 -10 11 -22 20 -27 20 -5 0 -14 4 -21
10 -7 5 -61 47 -122 91 -60 45 -128 98 -150 118 -75 68 -294 286 -295 293 0 4
-14 22 -31 40 -41 45 -126 158 -182 243 -26 39 -50 75 -54 80 -13 17 -52 87
-76 135 -12 25 -25 47 -28 50 -9 8 -49 95 -49 107 0 6 -4 13 -8 15 -9 3 -93
212 -102 253 -1 6 -5 15 -10 20 -4 6 -11 26 -15 45 -4 19 -11 41 -16 50 -8 14
-36 122 -44 165 -2 11 -11 54 -20 95 -17 75 -19 91 -31 185 -3 28 -8 66 -11
85 -9 62 -11 493 -2 555 4 33 11 87 14 120 10 92 52 289 85 400 17 55 32 107
34 116 10 40 101 266 113 280 7 8 13 20 13 26 0 12 66 140 82 161 6 6 7 12 3
12 -4 0 4 15 19 34 14 19 26 37 26 40 0 5 86 141 102 161 4 6 29 39 55 75 26
36 50 67 53 70 3 3 21 25 40 50 62 81 343 353 445 431 109 83 202 149 209 149
3 0 24 13 48 29 151 102 498 259 656 296 9 3 49 14 87 25 39 11 79 22 90 24
11 2 40 9 65 14 25 6 63 13 85 17 22 3 67 10 100 15 33 5 92 12 130 16 39 3
71 7 72 8 5 5 449 -2 488 -8z"/>
</g>
</svg>
